<?xml version="1.0" standalone="no"?><!DOCTYPE svg PUBLIC "-//W3C//DTD SVG 1.1//EN" "http://www.w3.org/Graphics/SVG/1.1/DTD/svg11.dtd"><svg t="1561021835060" class="icon" viewBox="0 0 1024 1024" version="1.1" xmlns="http://www.w3.org/2000/svg" p-id="1976" width="16" height="16" xmlns:xlink="http://www.w3.org/1999/xlink"><defs><style type="text/css"></style></defs><path d="M512 992C246.8571875 992 32 777.1428125 32 512 32 246.8571875 246.8571875 32 512 32c265.1428125 0 480 214.8571875 480 480 0 265.1428125-214.8571875 480-480 480z m-33.1921875-524.0625h-174.309375c-24.0946875 0.075-43.6228125 19.5628125-43.7484375 43.6575a43.565625 43.565625 0 0 0 43.7484375 43.6565625h174.309375v174.309375c0.075 24.09375 19.561875 43.6228125 43.6565625 43.7484375 24.2746875 0 43.6575-19.565625 43.6575-43.7484375v-174.309375h174.3084375c24.0946875-0.075 43.6228125-19.561875 43.7484375-43.6565625 0-24.2746875-19.565625-43.6575-43.7484375-43.6575h-174.309375V293.6290625c-0.075-24.0946875-19.561875-43.6228125-43.6565625-43.7484375a43.565625 43.565625 0 0 0-43.6565625 43.7484375V467.9375z" fill="#1296db" p-id="1977"></path></svg>